<svg width="69" height="44" viewBox="0 0 69 44" fill="none" xmlns="http://www.w3.org/2000/svg">
<g clip-path="url(#clip0)">
<path d="M18.6467 22.326V32.7046L9.71094 27.5111L18.6467 22.326Z" fill="#6B8B88"/>
<path d="M9.71094 27.5111V17.141L18.6467 22.326L9.71094 27.5111Z" fill="#892827"/>
<path d="M19.4011 22.3557L28.4043 27.581L19.4011 32.7428V22.3557Z" fill="#D8D8D8"/>
<path d="M19.4011 22.3557L28.4043 17.1325V27.581L19.4011 22.3557Z" fill="#EBEBEB"/>
<path d="M19.0137 21.638V11.2721L27.9516 16.4508L19.0137 21.638Z" fill="#EBEBEB"/>
<path d="M19.0135 21.638L10.0735 16.4508L19.0135 11.2721V21.638Z" fill="#B53634"/>
<path d="M8.95896 27.0835L0 21.8836L8.95896 16.6964V27.0835Z" fill="#EBEBEB"/>
<path d="M18.6467 33.5854L9.71094 38.7726V28.3982L18.6467 33.5854Z" fill="#8CBAB6"/>
<path d="M28.4043 28.358V38.8107L19.4011 33.5854L28.4043 28.358Z" fill="#B53634"/>
<path d="M29.0933 16.7027L38.048 21.8835L29.1565 27.0453L29.0933 16.7027Z" fill="#892827"/>
<path d="M9.20972 16.0887V5.7186L18.1455 10.9037L9.20972 16.0887Z" fill="#D8D8D8"/>
<path d="M19.6521 10.9037L28.6553 5.68048V16.1289L19.6521 10.9037Z" fill="#6B8B88"/>
<path d="M9.20969 16.1036L0.250732 10.9037L9.20969 5.71649V16.1036Z" fill="#EBEBEB"/>
<path d="M28.6553 5.68048L37.5468 10.9037L28.6553 16.1289V5.68048Z" fill="#8CBAB6"/>
<path d="M18.8977 10.3998V0L27.8693 5.20412L18.8977 10.3998Z" fill="#8CBAB6"/>
<path d="M18.8975 10.3998L9.92798 5.20412L18.8975 0V10.3998Z" fill="#B53634"/>
<path d="M8.95475 16.7028L0 21.8899V11.5071L8.95475 16.7028Z" fill="#D8D8D8"/>
<path d="M8.94632 27.9536L0 33.1451V22.7622L8.94632 27.9536Z" fill="#EBEBEB"/>
<path d="M8.95896 27.9473V38.3407L0 33.145L8.95896 27.9473Z" fill="#6B8B88"/>
<path d="M18.6511 33.5833V43.9619L9.70898 38.7726L18.6511 33.5833Z" fill="#B53634"/>
<path d="M19.4011 33.5854L28.4043 38.8128L19.4622 44L19.4011 33.5854Z" fill="#8CBAB6"/>
<path d="M29.1018 28.0722L38.0481 33.2615L29.1566 38.4191L29.1018 28.0722Z" fill="#892827"/>
<path d="M29.1018 28.0722L38.0481 22.8786V33.2615L29.1018 28.0722Z" fill="#B53634"/>
<path d="M38.048 21.8899L29.0933 16.7028L38.048 11.5071V21.8899Z" fill="#B53634"/>
<path d="M48.2819 13.5185H52.439C54.3795 13.5185 55.7196 14.5263 56.4107 15.7542C56.9648 16.7197 57.4262 18.5384 57.4262 21.4114C57.4262 25.4236 56.3875 27.1279 56.0862 27.5514C55.3235 28.5825 54.1457 29.3044 52.1145 29.3044H48.2798V13.5185H48.2819ZM49.367 28.4279H51.4234C53.2481 28.4279 54.7714 28.1865 55.5805 26.4102C56.2274 25.0065 56.2737 22.9231 56.2737 21.4114C56.2737 19.8997 56.2274 17.6174 55.511 16.2581C54.6345 14.5919 53.1785 14.395 51.4234 14.395H49.367V28.4258V28.4279Z" fill="#ECECEC"/>
<path d="M69 28.4278V29.3044H60.1506C60.1506 25.8618 60.7511 24.5682 64.215 21.6972C65.6899 20.4692 67.8412 18.8686 67.8412 16.8276C67.8412 15.1825 66.7329 14.0879 64.9778 14.0879C62.8708 14.0879 61.7667 15.6229 61.6276 17.4649H60.5425C60.7532 15.0089 62.2745 13.2114 65.0009 13.2114C67.4029 13.2114 68.9284 14.6151 68.9284 16.8954C68.9284 19.1756 66.9415 20.7063 65.2791 22.1143C61.8152 25.053 61.2758 26.1921 61.2378 28.4278H68.9979H69Z" fill="#ECECEC"/>
</g>
<defs>
<clipPath id="clip0">
<rect width="69" height="44" fill="white"/>
</clipPath>
</defs>
</svg>
